<svg xmlns="http://www.w3.org/2000/svg" xmlns:xlink="http://www.w3.org/1999/xlink" width="180" zoomAndPan="magnify" viewBox="0 0 135 30.000001" height="40" preserveAspectRatio="xMidYMid meet" version="1.0"><defs><clipPath id="2df952f579"><path d="M 45 0 L 132.820312 0 L 132.820312 29.03125 L 45 29.03125 Z M 45 0 " clip-rule="nonzero"/></clipPath><clipPath id="b1c8e1d72d"><path d="M 2.175781 0 L 41 0 L 41 29 L 2.175781 29 Z M 2.175781 0 " clip-rule="nonzero"/></clipPath></defs><g clip-path="url(#2df952f579)"><path fill="#ffffff" d="M 100.171875 22.863281 C 100.179688 22.871094 100.1875 22.878906 100.199219 22.882812 L 100.640625 22.953125 C 100.925781 22.996094 101.207031 23.054688 101.480469 23.152344 C 101.632812 23.207031 101.78125 23.269531 101.925781 23.339844 C 102.28125 23.515625 102.554688 23.785156 102.742188 24.136719 C 102.917969 24.453125 103.023438 24.792969 103.089844 25.148438 C 103.164062 25.574219 103.207031 26.007812 103.21875 26.441406 C 103.226562 26.734375 103.265625 27.023438 103.34375 27.308594 C 103.371094 27.414062 103.410156 27.511719 103.460938 27.609375 C 103.503906 27.703125 103.566406 27.78125 103.652344 27.84375 C 103.738281 27.90625 103.832031 27.945312 103.933594 27.957031 C 104.039062 27.972656 104.140625 27.957031 104.234375 27.921875 C 104.332031 27.882812 104.414062 27.820312 104.480469 27.742188 C 104.574219 27.644531 104.636719 27.53125 104.679688 27.410156 C 104.714844 27.320312 104.738281 27.222656 104.765625 27.132812 C 104.777344 27.101562 104.792969 27.070312 104.808594 27.046875 C 104.820312 27.03125 104.847656 27.011719 104.863281 27.015625 L 105.175781 27.078125 C 105.191406 27.082031 105.203125 27.105469 105.214844 27.125 C 105.222656 27.144531 105.222656 27.167969 105.21875 27.191406 C 105.171875 27.582031 105.042969 27.945312 104.824219 28.277344 C 104.636719 28.554688 104.386719 28.75 104.078125 28.875 C 103.929688 28.933594 103.777344 28.976562 103.617188 28.996094 C 103.222656 29.046875 102.828125 29.046875 102.4375 28.945312 C 101.90625 28.828125 101.554688 28.511719 101.382812 27.996094 C 101.316406 27.8125 101.269531 27.621094 101.242188 27.425781 L 101.191406 26.746094 L 101.203125 25.964844 C 101.207031 25.53125 101.191406 25.097656 101.105469 24.671875 C 101.070312 24.5 101.019531 24.335938 100.953125 24.175781 C 100.824219 23.871094 100.613281 23.652344 100.316406 23.519531 C 100.039062 23.390625 99.75 23.320312 99.453125 23.28125 C 99.132812 23.238281 98.816406 23.21875 98.492188 23.226562 L 97.886719 23.226562 C 97.710938 23.230469 97.691406 23.25 97.6875 23.441406 L 97.6875 26.859375 L 97.707031 27.347656 C 97.722656 27.476562 97.75 27.605469 97.777344 27.730469 C 97.828125 27.957031 97.964844 28.09375 98.1875 28.148438 C 98.339844 28.1875 98.5 28.226562 98.660156 28.230469 L 98.949219 28.246094 C 98.996094 28.253906 99.023438 28.28125 99.03125 28.328125 L 99.039062 28.75 C 99.039062 28.828125 98.992188 28.875 98.921875 28.875 L 98.441406 28.855469 L 96.328125 28.808594 L 95.527344 28.828125 L 94.472656 28.875 C 94.421875 28.878906 94.367188 28.871094 94.3125 28.863281 C 94.296875 28.859375 94.28125 28.835938 94.269531 28.820312 C 94.261719 28.8125 94.261719 28.800781 94.257812 28.789062 L 94.257812 28.335938 C 94.257812 28.292969 94.300781 28.253906 94.339844 28.25 L 94.5625 28.234375 C 94.714844 28.234375 94.859375 28.203125 95.007812 28.175781 L 95.101562 28.152344 C 95.335938 28.097656 95.476562 27.949219 95.523438 27.710938 C 95.550781 27.605469 95.574219 27.5 95.585938 27.390625 L 95.613281 26.871094 L 95.613281 18.929688 L 95.585938 18.410156 C 95.578125 18.265625 95.539062 18.128906 95.492188 18 C 95.445312 17.867188 95.359375 17.777344 95.234375 17.722656 C 95.117188 17.667969 94.992188 17.632812 94.867188 17.617188 L 94.515625 17.578125 C 94.234375 17.558594 94.25 17.558594 94.25 17.261719 L 94.261719 17.003906 C 94.261719 16.964844 94.308594 16.921875 94.347656 16.921875 L 94.828125 16.929688 L 96.972656 16.957031 L 98.703125 16.914062 C 99.226562 16.894531 99.75 16.917969 100.269531 16.976562 C 100.75 17.023438 101.21875 17.125 101.671875 17.289062 C 101.933594 17.386719 102.183594 17.507812 102.414062 17.667969 C 102.964844 18.042969 103.304688 18.5625 103.417969 19.226562 C 103.511719 19.761719 103.488281 20.285156 103.347656 20.808594 C 103.179688 21.433594 102.816406 21.910156 102.265625 22.242188 C 101.894531 22.460938 101.496094 22.613281 101.070312 22.695312 L 100.28125 22.828125 C 100.242188 22.832031 100.199219 22.824219 100.171875 22.859375 Z M 97.6875 20.050781 L 97.695312 22.230469 L 97.699219 22.425781 C 97.703125 22.480469 97.746094 22.527344 97.800781 22.53125 L 98.25 22.554688 C 98.625 22.570312 98.996094 22.550781 99.367188 22.5 C 99.601562 22.46875 99.828125 22.410156 100.046875 22.328125 C 100.644531 22.105469 101.023438 21.683594 101.207031 21.070312 C 101.21875 21.042969 101.222656 21.007812 101.230469 20.976562 C 101.351562 20.488281 101.382812 19.992188 101.320312 19.492188 C 101.292969 19.265625 101.242188 19.042969 101.164062 18.832031 C 100.988281 18.375 100.683594 18.042969 100.246094 17.835938 C 100.167969 17.800781 100.085938 17.769531 100.007812 17.742188 C 99.714844 17.632812 99.40625 17.578125 99.097656 17.566406 C 98.726562 17.550781 98.351562 17.566406 97.976562 17.570312 C 97.902344 17.574219 97.828125 17.59375 97.757812 17.609375 C 97.722656 17.617188 97.699219 17.648438 97.695312 17.675781 L 97.6875 17.96875 Z M 124.757812 19.996094 L 124.691406 19.613281 C 124.652344 19.355469 124.589844 19.105469 124.503906 18.855469 C 124.449219 18.691406 124.375 18.535156 124.285156 18.386719 C 124.148438 18.160156 123.960938 17.988281 123.722656 17.875 C 123.546875 17.789062 123.363281 17.730469 123.175781 17.691406 C 122.988281 17.648438 122.796875 17.621094 122.605469 17.601562 C 122.210938 17.5625 121.820312 17.558594 121.421875 17.558594 L 119.660156 17.558594 C 119.585938 17.558594 119.511719 17.5625 119.4375 17.574219 C 119.414062 17.578125 119.386719 17.609375 119.371094 17.636719 C 119.359375 17.660156 119.355469 17.699219 119.355469 17.730469 L 119.351562 17.992188 L 119.351562 21.800781 L 119.363281 22.125 C 119.363281 22.160156 119.410156 22.210938 119.441406 22.214844 L 119.570312 22.222656 L 120.53125 22.21875 L 121.203125 22.167969 C 121.339844 22.152344 121.472656 22.109375 121.605469 22.070312 C 121.828125 22 121.964844 21.839844 122.042969 21.628906 C 122.117188 21.421875 122.164062 21.210938 122.191406 20.996094 L 122.261719 20.445312 C 122.265625 20.40625 122.308594 20.371094 122.347656 20.367188 C 122.359375 20.363281 122.367188 20.359375 122.378906 20.363281 C 122.804688 20.375 122.785156 20.3125 122.769531 20.761719 L 122.722656 22.097656 L 122.734375 23.527344 L 122.777344 24.894531 C 122.78125 24.9375 122.777344 24.980469 122.761719 25.023438 C 122.753906 25.046875 122.722656 25.082031 122.699219 25.082031 C 122.574219 25.085938 122.445312 25.085938 122.316406 25.078125 C 122.300781 25.078125 122.277344 25.054688 122.269531 25.039062 C 122.261719 25.007812 122.253906 24.976562 122.25 24.945312 L 122.1875 24.328125 C 122.167969 24.125 122.125 23.921875 122.066406 23.722656 C 122.042969 23.640625 122.011719 23.558594 121.976562 23.480469 C 121.898438 23.292969 121.765625 23.15625 121.578125 23.074219 C 121.472656 23.027344 121.363281 22.988281 121.246094 22.960938 C 121.058594 22.917969 120.871094 22.886719 120.675781 22.886719 C 120.292969 22.886719 119.90625 22.886719 119.523438 22.886719 C 119.492188 22.886719 119.457031 22.886719 119.429688 22.898438 C 119.402344 22.914062 119.375 22.941406 119.371094 22.96875 C 119.359375 23.042969 119.351562 23.117188 119.351562 23.191406 L 119.351562 27.847656 C 119.351562 28.246094 119.328125 28.222656 119.714844 28.222656 L 122.632812 28.222656 C 123.007812 28.21875 123.378906 28.179688 123.742188 28.101562 C 123.953125 28.058594 124.15625 27.988281 124.347656 27.894531 C 124.605469 27.765625 124.808594 27.578125 124.953125 27.328125 C 125.058594 27.148438 125.140625 26.960938 125.203125 26.765625 C 125.292969 26.476562 125.359375 26.179688 125.398438 25.878906 L 125.457031 25.492188 C 125.460938 25.464844 125.492188 25.425781 125.515625 25.421875 C 125.652344 25.390625 125.789062 25.394531 125.925781 25.425781 C 125.941406 25.429688 125.964844 25.457031 125.964844 25.472656 L 125.949219 25.894531 L 125.914062 26.285156 L 125.796875 27.9375 L 125.765625 28.652344 C 125.761719 28.707031 125.753906 28.761719 125.742188 28.8125 C 125.738281 28.832031 125.71875 28.847656 125.699219 28.859375 C 125.683594 28.867188 125.660156 28.871094 125.640625 28.875 L 125.320312 28.878906 L 116.347656 28.878906 C 115.84375 28.878906 115.921875 28.929688 115.914062 28.417969 C 115.914062 28.394531 115.914062 28.371094 115.917969 28.351562 C 115.921875 28.292969 115.960938 28.242188 116.011719 28.238281 L 116.234375 28.226562 C 116.386719 28.226562 116.53125 28.191406 116.679688 28.164062 L 116.742188 28.152344 C 116.976562 28.085938 117.132812 27.941406 117.191406 27.691406 C 117.21875 27.566406 117.253906 27.441406 117.253906 27.308594 L 117.277344 26.691406 L 117.277344 19.105469 L 117.25 18.453125 C 117.238281 18.324219 117.214844 18.199219 117.179688 18.070312 C 117.132812 17.859375 117.003906 17.726562 116.792969 17.675781 C 116.679688 17.640625 116.566406 17.617188 116.449219 17.601562 L 116.003906 17.554688 C 115.964844 17.550781 115.921875 17.507812 115.921875 17.46875 L 115.914062 17.078125 C 115.917969 16.9375 115.945312 16.910156 116.085938 16.90625 L 116.339844 16.902344 L 118.585938 16.902344 L 123.101562 16.886719 L 124.542969 16.859375 L 124.957031 16.859375 C 125.058594 16.863281 125.089844 16.890625 125.097656 16.996094 L 125.128906 17.386719 L 125.183594 18.457031 L 125.214844 19.074219 L 125.265625 19.824219 C 125.269531 19.867188 125.269531 19.910156 125.261719 19.953125 C 125.253906 19.976562 125.226562 20.015625 125.203125 20.019531 L 124.851562 20.027344 C 124.824219 20.023438 124.792969 20.007812 124.757812 19.992188 Z M 81.390625 28.800781 L 79.570312 28.859375 C 79.433594 28.871094 79.292969 28.871094 79.15625 28.871094 C 79.101562 28.871094 79.058594 28.828125 79.058594 28.765625 L 79.054688 28.378906 C 79.058594 28.277344 79.089844 28.242188 79.191406 28.238281 C 79.339844 28.230469 79.488281 28.210938 79.632812 28.171875 C 79.703125 28.152344 79.777344 28.132812 79.847656 28.101562 C 80.085938 28 80.1875 27.808594 80.179688 27.527344 C 80.175781 27.390625 80.148438 27.25 80.105469 27.113281 L 79.316406 24.742188 L 79.296875 24.679688 C 79.273438 24.609375 79.226562 24.570312 79.15625 24.566406 L 79.027344 24.558594 L 75.984375 24.558594 C 75.929688 24.558594 75.878906 24.5625 75.824219 24.570312 C 75.78125 24.578125 75.746094 24.597656 75.726562 24.644531 L 75.667969 24.792969 L 74.988281 26.757812 L 74.839844 27.257812 C 74.800781 27.417969 74.789062 27.578125 74.8125 27.742188 C 74.824219 27.9375 74.925781 28.066406 75.117188 28.121094 C 75.257812 28.167969 75.40625 28.191406 75.550781 28.222656 C 75.59375 28.230469 75.636719 28.230469 75.675781 28.246094 C 75.703125 28.253906 75.734375 28.285156 75.738281 28.308594 C 75.761719 28.472656 75.761719 28.632812 75.742188 28.796875 C 75.734375 28.828125 75.6875 28.867188 75.648438 28.867188 L 75.359375 28.855469 C 74.601562 28.800781 73.84375 28.800781 73.085938 28.855469 C 72.992188 28.863281 72.894531 28.863281 72.800781 28.863281 C 72.761719 28.863281 72.722656 28.820312 72.71875 28.777344 L 72.71875 28.355469 C 72.71875 28.28125 72.761719 28.242188 72.84375 28.238281 C 72.980469 28.226562 73.117188 28.214844 73.253906 28.179688 C 73.460938 28.128906 73.621094 28.007812 73.730469 27.820312 C 73.828125 27.652344 73.910156 27.476562 73.972656 27.292969 L 74.394531 26.132812 L 76.574219 20.152344 L 77.648438 17.195312 L 77.773438 16.859375 C 77.792969 16.800781 77.832031 16.769531 77.890625 16.765625 C 77.902344 16.761719 77.914062 16.761719 77.921875 16.761719 L 78.5625 16.761719 C 78.636719 16.761719 78.6875 16.792969 78.714844 16.859375 L 78.835938 17.195312 L 81.84375 25.601562 L 82.410156 27.191406 L 82.59375 27.644531 C 82.660156 27.8125 82.769531 27.953125 82.917969 28.058594 C 83.066406 28.164062 83.234375 28.21875 83.414062 28.222656 L 83.640625 28.242188 C 83.679688 28.246094 83.71875 28.289062 83.71875 28.328125 L 83.71875 28.785156 C 83.71875 28.792969 83.71875 28.808594 83.710938 28.816406 C 83.699219 28.832031 83.683594 28.855469 83.667969 28.859375 C 83.636719 28.867188 83.601562 28.871094 83.570312 28.871094 L 83.15625 28.855469 L 81.386719 28.800781 Z M 77.554688 19.535156 C 77.527344 19.546875 77.5 19.550781 77.496094 19.5625 C 77.46875 19.609375 77.445312 19.660156 77.429688 19.710938 L 76.023438 23.6875 L 75.992188 23.78125 C 75.96875 23.851562 76.003906 23.902344 76.089844 23.90625 L 76.34375 23.910156 L 78.585938 23.910156 L 78.808594 23.90625 C 78.980469 23.90625 79.003906 23.871094 78.957031 23.71875 L 78.945312 23.6875 L 77.625 19.714844 Z M 62.289062 19.496094 L 62.316406 21.125 C 62.320312 21.335938 62.316406 21.371094 62.089844 21.367188 L 61.898438 21.363281 C 61.828125 21.359375 61.785156 21.316406 61.773438 21.238281 L 61.675781 20.5625 C 61.574219 20.015625 61.402344 19.496094 61.113281 19.015625 C 60.925781 18.695312 60.695312 18.414062 60.417969 18.171875 C 59.992188 17.804688 59.507812 17.574219 58.953125 17.480469 C 58.367188 17.375 57.785156 17.394531 57.207031 17.542969 C 56.472656 17.730469 55.886719 18.144531 55.453125 18.773438 C 55.199219 19.136719 55.015625 19.542969 54.882812 19.96875 C 54.757812 20.363281 54.671875 20.761719 54.617188 21.171875 C 54.539062 21.765625 54.503906 22.359375 54.515625 22.957031 C 54.53125 23.652344 54.589844 24.34375 54.753906 25.023438 C 54.886719 25.574219 55.082031 26.101562 55.382812 26.582031 C 55.640625 26.988281 55.957031 27.335938 56.355469 27.605469 C 56.660156 27.8125 56.992188 27.949219 57.34375 28.050781 C 58.074219 28.222656 58.804688 28.226562 59.535156 28.054688 C 60.546875 27.765625 61.261719 27.140625 61.679688 26.164062 C 61.746094 26.003906 61.796875 25.835938 61.851562 25.671875 C 61.867188 25.632812 61.878906 25.589844 61.898438 25.554688 C 61.90625 25.535156 61.929688 25.515625 61.945312 25.515625 C 62.105469 25.492188 62.265625 25.492188 62.425781 25.515625 C 62.445312 25.519531 62.476562 25.566406 62.472656 25.589844 L 62.390625 26.003906 C 62.058594 27.320312 61.246094 28.203125 60.003906 28.691406 C 59.664062 28.824219 59.3125 28.902344 58.953125 28.957031 C 58.386719 29.046875 57.824219 29.046875 57.257812 29 C 56.472656 28.9375 55.71875 28.738281 55.027344 28.347656 C 53.785156 27.648438 52.953125 26.601562 52.515625 25.226562 C 52.378906 24.792969 52.289062 24.347656 52.242188 23.890625 C 52.195312 23.4375 52.183594 22.980469 52.207031 22.527344 C 52.25 21.730469 52.390625 20.953125 52.699219 20.214844 C 53.246094 18.917969 54.128906 17.9375 55.378906 17.316406 C 55.914062 17.054688 56.476562 16.890625 57.066406 16.820312 C 57.523438 16.761719 57.980469 16.742188 58.441406 16.777344 C 59.253906 16.832031 60.015625 17.0625 60.722656 17.472656 C 60.980469 17.625 61.226562 17.800781 61.449219 18 L 61.621094 18.148438 C 61.640625 18.164062 61.6875 18.144531 61.695312 18.113281 L 61.734375 17.988281 L 61.808594 17.539062 C 61.828125 17.429688 61.863281 17.402344 61.988281 17.402344 L 62.082031 17.402344 C 62.351562 17.402344 62.347656 17.394531 62.335938 17.671875 Z M 105.898438 5.992188 C 105.992188 6.046875 106.09375 6.023438 106.1875 6.042969 C 106.269531 6.058594 106.355469 6.070312 106.441406 6.082031 C 106.855469 6.136719 107.257812 6.246094 107.640625 6.40625 C 107.902344 6.515625 108.140625 6.660156 108.359375 6.835938 C 108.800781 7.191406 109.09375 7.648438 109.21875 8.207031 C 109.359375 8.820312 109.355469 9.433594 109.179688 10.039062 C 109.023438 10.605469 108.695312 11.046875 108.199219 11.359375 C 107.933594 11.527344 107.652344 11.65625 107.355469 11.746094 C 106.9375 11.878906 106.507812 11.964844 106.070312 12.003906 L 104.726562 12.070312 L 102.964844 12.039062 L 101.300781 12.027344 C 100.894531 12.023438 100.488281 12.035156 100.085938 12.066406 C 100.011719 12.070312 99.9375 12.066406 99.863281 12.0625 C 99.820312 12.0625 99.773438 12.019531 99.773438 11.984375 L 99.765625 11.53125 C 99.765625 11.488281 99.804688 11.445312 99.84375 11.441406 L 100.035156 11.429688 C 100.195312 11.425781 100.351562 11.402344 100.507812 11.363281 C 100.5625 11.351562 100.609375 11.332031 100.660156 11.316406 C 100.839844 11.261719 100.953125 11.136719 101.007812 10.964844 C 101.058594 10.820312 101.085938 10.671875 101.097656 10.519531 L 101.113281 9.996094 L 101.113281 2.085938 L 101.097656 1.632812 C 101.09375 1.5 101.058594 1.375 101.019531 1.25 C 100.972656 1.097656 100.875 0.988281 100.722656 0.933594 L 100.507812 0.875 C 100.328125 0.832031 100.148438 0.8125 99.96875 0.808594 C 99.78125 0.808594 99.753906 0.78125 99.757812 0.574219 L 99.765625 0.25 C 99.765625 0.210938 99.808594 0.167969 99.847656 0.167969 L 100.136719 0.164062 L 101.449219 0.199219 L 102.21875 0.199219 L 104.074219 0.160156 L 104.96875 0.15625 C 105.441406 0.15625 105.910156 0.199219 106.371094 0.285156 C 106.675781 0.34375 106.972656 0.429688 107.261719 0.546875 C 107.429688 0.617188 107.589844 0.703125 107.742188 0.804688 C 108.195312 1.097656 108.503906 1.5 108.667969 2.011719 C 108.738281 2.230469 108.78125 2.453125 108.804688 2.679688 C 108.832031 2.960938 108.832031 3.242188 108.796875 3.523438 C 108.691406 4.429688 108.253906 5.109375 107.457031 5.535156 C 107.109375 5.710938 106.746094 5.832031 106.363281 5.890625 L 105.980469 5.949219 C 105.953125 5.953125 105.929688 5.972656 105.898438 5.992188 Z M 103.160156 8.828125 L 103.160156 11.039062 L 103.167969 11.296875 C 103.167969 11.335938 103.210938 11.382812 103.246094 11.390625 C 103.28125 11.394531 103.308594 11.402344 103.339844 11.402344 L 104.96875 11.367188 C 105.226562 11.34375 105.476562 11.296875 105.722656 11.226562 C 105.878906 11.183594 106.027344 11.125 106.167969 11.046875 C 106.460938 10.894531 106.683594 10.667969 106.835938 10.367188 C 106.941406 10.15625 107.015625 9.929688 107.054688 9.691406 C 107.148438 9.164062 107.144531 8.636719 107.054688 8.109375 C 107.019531 7.914062 106.964844 7.730469 106.890625 7.546875 C 106.714844 7.117188 106.417969 6.808594 106 6.617188 L 105.792969 6.53125 C 105.519531 6.429688 105.238281 6.378906 104.953125 6.34375 C 104.421875 6.285156 103.886719 6.296875 103.355469 6.300781 L 103.289062 6.300781 C 103.21875 6.304688 103.167969 6.355469 103.164062 6.421875 L 103.160156 6.714844 Z M 103.160156 3.222656 L 103.160156 5.304688 C 103.160156 5.390625 103.164062 5.480469 103.171875 5.566406 C 103.175781 5.589844 103.210938 5.621094 103.234375 5.628906 C 103.296875 5.640625 103.363281 5.648438 103.425781 5.644531 L 104.449219 5.644531 L 104.867188 5.628906 C 105.167969 5.601562 105.457031 5.539062 105.734375 5.417969 C 106.117188 5.253906 106.390625 4.976562 106.554688 4.589844 C 106.644531 4.382812 106.707031 4.164062 106.742188 3.9375 C 106.816406 3.449219 106.816406 2.964844 106.738281 2.476562 C 106.695312 2.21875 106.628906 1.96875 106.511719 1.734375 C 106.375 1.464844 106.175781 1.261719 105.90625 1.125 C 105.742188 1.046875 105.574219 0.984375 105.394531 0.941406 C 105.058594 0.863281 104.71875 0.832031 104.378906 0.824219 L 103.351562 0.820312 C 103.320312 0.820312 103.289062 0.824219 103.257812 0.828125 C 103.21875 0.832031 103.171875 0.875 103.171875 0.910156 L 103.160156 1.203125 Z M 71.378906 0.167969 L 71.734375 0.652344 L 77.496094 8.550781 L 77.65625 8.753906 C 77.664062 8.765625 77.699219 8.769531 77.714844 8.761719 C 77.726562 8.753906 77.742188 8.730469 77.746094 8.714844 C 77.75 8.617188 77.75 8.519531 77.75 8.421875 L 77.753906 2.65625 C 77.75 2.351562 77.730469 2.050781 77.695312 1.75 C 77.675781 1.609375 77.644531 1.472656 77.601562 1.335938 C 77.546875 1.148438 77.421875 1.019531 77.238281 0.953125 C 77.148438 0.917969 77.054688 0.894531 76.960938 0.871094 C 76.742188 0.820312 76.519531 0.808594 76.292969 0.804688 C 76.238281 0.804688 76.1875 0.757812 76.1875 0.707031 L 76.1875 0.25 C 76.191406 0.210938 76.234375 0.167969 76.273438 0.167969 L 76.71875 0.179688 C 77.574219 0.246094 78.425781 0.257812 79.28125 0.179688 C 79.429688 0.167969 79.578125 0.171875 79.726562 0.171875 C 79.777344 0.175781 79.804688 0.203125 79.808594 0.253906 L 79.8125 0.710938 C 79.8125 0.765625 79.765625 0.800781 79.707031 0.808594 L 79.164062 0.878906 C 79.0625 0.902344 78.960938 0.933594 78.863281 0.980469 C 78.726562 1.035156 78.632812 1.136719 78.582031 1.277344 C 78.519531 1.441406 78.480469 1.609375 78.472656 1.78125 L 78.433594 2.691406 L 78.429688 8.683594 L 78.390625 11.875 C 78.386719 11.949219 78.371094 12.027344 78.359375 12.097656 C 78.355469 12.117188 78.332031 12.132812 78.316406 12.136719 C 78.285156 12.148438 78.253906 12.148438 78.222656 12.148438 C 77.996094 12.136719 77.777344 12.097656 77.546875 12.066406 L 77.371094 11.839844 L 74.882812 8.441406 L 70.351562 2.25 L 70.0625 1.859375 C 70.035156 1.824219 70.003906 1.816406 69.984375 1.828125 C 69.949219 1.847656 69.953125 1.882812 69.949219 1.914062 L 69.949219 9.761719 C 69.949219 10.042969 69.960938 10.324219 70.007812 10.605469 C 70.027344 10.710938 70.050781 10.816406 70.082031 10.921875 C 70.132812 11.113281 70.253906 11.242188 70.441406 11.304688 C 70.636719 11.371094 70.835938 11.398438 71.039062 11.421875 C 71.09375 11.429688 71.144531 11.429688 71.199219 11.429688 C 71.515625 11.429688 71.5 11.441406 71.496094 11.734375 L 71.492188 11.898438 C 71.484375 12.054688 71.453125 12.082031 71.289062 12.066406 C 70.308594 11.980469 69.328125 11.992188 68.34375 12.039062 L 67.960938 12.066406 C 67.855469 12.074219 67.808594 12.03125 67.808594 11.914062 L 67.816406 11.523438 C 67.820312 11.484375 67.859375 11.441406 67.898438 11.441406 C 68.101562 11.425781 68.304688 11.421875 68.503906 11.371094 L 68.78125 11.292969 C 68.949219 11.230469 69.066406 11.113281 69.128906 10.933594 C 69.1875 10.769531 69.222656 10.601562 69.234375 10.429688 L 69.277344 9.453125 L 69.277344 2.382812 C 69.277344 2.132812 69.253906 1.886719 69.238281 1.636719 C 69.230469 1.503906 69.195312 1.378906 69.152344 1.257812 C 69.097656 1.089844 68.988281 0.980469 68.824219 0.925781 C 68.628906 0.859375 68.429688 0.824219 68.226562 0.8125 L 67.84375 0.800781 C 67.804688 0.796875 67.761719 0.753906 67.761719 0.714844 L 67.761719 0.261719 C 67.761719 0.203125 67.808594 0.164062 67.867188 0.164062 L 68.25 0.179688 C 69.113281 0.25 69.980469 0.25 70.84375 0.179688 C 71.019531 0.160156 71.199219 0.15625 71.378906 0.167969 Z M 132.335938 8.640625 C 132.484375 8.609375 132.628906 8.605469 132.777344 8.632812 C 132.792969 8.636719 132.816406 8.664062 132.816406 8.679688 C 132.824219 8.734375 132.824219 8.789062 132.820312 8.84375 L 132.757812 9.621094 L 132.667969 10.886719 L 132.628906 11.699219 C 132.605469 12.113281 132.628906 12.070312 132.25 12.070312 L 123.179688 12.070312 C 122.78125 12.070312 122.816406 12.09375 122.816406 11.703125 L 122.816406 11.636719 C 122.816406 11.464844 122.832031 11.429688 123.015625 11.429688 C 123.199219 11.425781 123.378906 11.402344 123.558594 11.363281 C 123.703125 11.347656 123.824219 11.285156 123.925781 11.179688 C 124.027344 11.074219 124.085938 10.949219 124.101562 10.804688 C 124.132812 10.613281 124.167969 10.421875 124.167969 10.222656 L 124.167969 2.214844 C 124.175781 1.972656 124.15625 1.738281 124.113281 1.5 C 124.089844 1.394531 124.058594 1.292969 124.019531 1.191406 C 123.980469 1.085938 123.902344 1.007812 123.800781 0.964844 C 123.699219 0.925781 123.597656 0.894531 123.496094 0.871094 C 123.304688 0.824219 123.113281 0.816406 122.921875 0.800781 C 122.863281 0.796875 122.820312 0.757812 122.820312 0.699219 L 122.824219 0.242188 C 122.828125 0.203125 122.871094 0.164062 122.910156 0.164062 L 123.199219 0.15625 L 124.738281 0.15625 L 127.394531 0.148438 L 129.769531 0.132812 L 131.691406 0.101562 L 131.847656 0.101562 C 131.90625 0.101562 131.945312 0.136719 131.949219 0.203125 L 132 1.046875 L 132.097656 2.640625 L 132.125 3.160156 C 132.125 3.214844 132.082031 3.261719 132.023438 3.261719 C 131.914062 3.261719 131.808594 3.261719 131.703125 3.261719 C 131.660156 3.257812 131.617188 3.222656 131.609375 3.183594 L 131.5625 2.929688 C 131.53125 2.703125 131.484375 2.480469 131.421875 2.261719 C 131.367188 2.074219 131.292969 1.890625 131.203125 1.71875 C 131.042969 1.410156 130.800781 1.191406 130.476562 1.0625 C 130.28125 0.980469 130.074219 0.921875 129.863281 0.886719 C 129.558594 0.835938 129.25 0.808594 128.9375 0.804688 L 126.503906 0.804688 C 126.4375 0.804688 126.375 0.808594 126.3125 0.820312 C 126.285156 0.824219 126.253906 0.855469 126.246094 0.878906 C 126.230469 0.917969 126.230469 0.964844 126.230469 1.007812 L 126.230469 5.011719 L 126.242188 5.335938 C 126.242188 5.375 126.285156 5.417969 126.324219 5.421875 L 126.417969 5.429688 L 127.699219 5.425781 C 127.894531 5.425781 128.085938 5.394531 128.273438 5.351562 C 128.734375 5.238281 128.839844 5.085938 128.953125 4.710938 C 129.042969 4.429688 129.070312 4.136719 129.105469 3.847656 L 129.121094 3.683594 C 129.121094 3.644531 129.148438 3.617188 129.175781 3.613281 C 129.3125 3.582031 129.449219 3.578125 129.585938 3.617188 C 129.601562 3.621094 129.621094 3.648438 129.625 3.664062 C 129.632812 3.707031 129.636719 3.75 129.636719 3.792969 L 129.59375 5.421875 L 129.59375 6.332031 L 129.640625 8.121094 C 129.640625 8.15625 129.640625 8.191406 129.628906 8.21875 C 129.617188 8.246094 129.59375 8.28125 129.570312 8.285156 L 129.21875 8.292969 C 129.164062 8.292969 129.121094 8.246094 129.117188 8.1875 L 129.050781 7.507812 C 129.027344 7.304688 128.988281 7.101562 128.925781 6.90625 L 128.84375 6.691406 C 128.761719 6.507812 128.628906 6.371094 128.445312 6.285156 C 128.300781 6.214844 128.148438 6.167969 127.988281 6.148438 L 127.316406 6.097656 L 126.453125 6.101562 C 126.398438 6.101562 126.347656 6.109375 126.296875 6.117188 C 126.277344 6.121094 126.261719 6.144531 126.25 6.160156 C 126.242188 6.183594 126.234375 6.203125 126.234375 6.226562 L 126.230469 6.484375 L 126.230469 11.042969 C 126.230469 11.441406 126.203125 11.421875 126.589844 11.421875 L 129.183594 11.421875 C 129.546875 11.425781 129.910156 11.402344 130.269531 11.355469 C 130.535156 11.324219 130.792969 11.257812 131.046875 11.160156 C 131.425781 11.019531 131.707031 10.761719 131.882812 10.394531 C 131.984375 10.191406 132.0625 9.980469 132.117188 9.757812 C 132.1875 9.507812 132.234375 9.25 132.265625 8.992188 C 132.273438 8.90625 132.285156 8.820312 132.304688 8.734375 C 132.308594 8.703125 132.320312 8.675781 132.335938 8.636719 Z M 65.003906 0.117188 C 65.050781 0.265625 65.054688 0.40625 65.0625 0.546875 L 65.082031 1.097656 L 65.1875 2.753906 L 65.199219 3.175781 C 65.199219 3.214844 65.15625 3.257812 65.117188 3.261719 L 64.988281 3.269531 C 64.65625 3.273438 64.703125 3.273438 64.652344 2.976562 L 64.496094 2.246094 C 64.4375 2.046875 64.359375 1.859375 64.257812 1.679688 C 64.109375 1.40625 63.886719 1.207031 63.601562 1.082031 C 63.375 0.984375 63.136719 0.917969 62.894531 0.882812 C 62.597656 0.835938 62.300781 0.804688 62 0.808594 L 59.597656 0.808594 C 59.523438 0.808594 59.449219 0.816406 59.375 0.828125 C 59.359375 0.832031 59.339844 0.855469 59.332031 0.871094 C 59.324219 0.890625 59.316406 0.914062 59.316406 0.933594 L 59.3125 1.195312 L 59.3125 5.039062 L 59.316406 5.296875 C 59.320312 5.40625 59.375 5.425781 59.460938 5.429688 L 59.652344 5.433594 L 60.617188 5.433594 C 60.839844 5.433594 61.0625 5.414062 61.285156 5.367188 C 61.398438 5.34375 61.511719 5.304688 61.621094 5.265625 C 61.773438 5.203125 61.882812 5.085938 61.953125 4.933594 C 62.042969 4.742188 62.089844 4.542969 62.121094 4.339844 L 62.199219 3.695312 C 62.203125 3.652344 62.242188 3.613281 62.277344 3.605469 C 62.40625 3.585938 62.535156 3.589844 62.660156 3.617188 C 62.679688 3.621094 62.703125 3.640625 62.707031 3.660156 C 62.714844 3.710938 62.71875 3.765625 62.71875 3.820312 L 62.675781 5.414062 L 62.671875 6.328125 L 62.722656 8.117188 C 62.722656 8.160156 62.714844 8.203125 62.703125 8.242188 C 62.699219 8.261719 62.675781 8.285156 62.660156 8.285156 L 62.277344 8.289062 C 62.238281 8.289062 62.214844 8.257812 62.207031 8.230469 C 62.195312 8.179688 62.195312 8.125 62.191406 8.070312 C 62.171875 7.746094 62.128906 7.421875 62.058594 7.105469 C 62.027344 6.953125 61.980469 6.8125 61.914062 6.671875 C 61.835938 6.5 61.707031 6.375 61.535156 6.292969 C 61.410156 6.230469 61.277344 6.1875 61.140625 6.164062 L 60.597656 6.105469 L 59.507812 6.101562 C 59.476562 6.101562 59.445312 6.109375 59.414062 6.109375 C 59.363281 6.117188 59.320312 6.167969 59.316406 6.222656 L 59.3125 6.382812 L 59.3125 11.140625 C 59.3125 11.203125 59.320312 11.269531 59.324219 11.332031 C 59.324219 11.371094 59.371094 11.414062 59.40625 11.417969 L 59.601562 11.425781 L 60.496094 11.425781 L 62.578125 11.417969 C 62.957031 11.414062 63.328125 11.375 63.691406 11.296875 C 63.859375 11.257812 64.023438 11.207031 64.179688 11.140625 C 64.523438 11 64.777344 10.761719 64.945312 10.429688 C 65.054688 10.21875 65.136719 9.996094 65.199219 9.761719 C 65.261719 9.523438 65.308594 9.277344 65.339844 9.027344 C 65.351562 8.910156 65.375 8.792969 65.398438 8.675781 C 65.402344 8.660156 65.421875 8.640625 65.441406 8.636719 C 65.578125 8.609375 65.714844 8.609375 65.851562 8.636719 C 65.871094 8.636719 65.894531 8.664062 65.894531 8.679688 L 65.886719 9.003906 L 65.761719 10.660156 L 65.695312 11.894531 C 65.695312 11.925781 65.695312 11.960938 65.683594 11.988281 C 65.667969 12.019531 65.648438 12.039062 65.617188 12.054688 C 65.589844 12.066406 65.558594 12.066406 65.523438 12.066406 L 65.269531 12.070312 L 56.101562 12.070312 C 55.910156 12.066406 55.894531 12.050781 55.890625 11.839844 L 55.894531 11.546875 C 55.894531 11.476562 55.941406 11.433594 56.019531 11.433594 C 56.222656 11.429688 56.425781 11.40625 56.625 11.367188 C 56.953125 11.308594 57.132812 11.113281 57.183594 10.789062 C 57.226562 10.539062 57.25 10.292969 57.25 10.042969 L 57.25 2.257812 C 57.25 1.996094 57.238281 1.738281 57.191406 1.480469 C 57.117188 1.070312 56.96875 0.957031 56.617188 0.878906 C 56.441406 0.835938 56.257812 0.8125 56.078125 0.808594 C 56.046875 0.808594 56.011719 0.804688 55.980469 0.800781 C 55.941406 0.792969 55.902344 0.753906 55.902344 0.714844 L 55.898438 0.257812 C 55.898438 0.203125 55.941406 0.164062 56.003906 0.160156 L 56.292969 0.15625 L 58.054688 0.15625 L 60.488281 0.152344 L 62.859375 0.132812 L 64.816406 0.101562 C 64.878906 0.0976562 64.941406 0.109375 65.003906 0.117188 Z M 45.820312 11.753906 C 45.6875 11.8125 45.5625 11.796875 45.433594 11.777344 C 45.410156 11.773438 45.382812 11.738281 45.371094 11.710938 C 45.359375 11.683594 45.359375 11.648438 45.359375 11.617188 L 45.378906 8.753906 L 45.367188 8.035156 C 45.363281 7.9375 45.398438 7.902344 45.5 7.902344 L 45.820312 7.90625 C 45.84375 7.90625 45.859375 7.917969 45.890625 7.929688 C 45.898438 7.953125 45.914062 7.980469 45.921875 8.011719 L 46.035156 8.816406 C 46.136719 9.273438 46.289062 9.710938 46.53125 10.113281 C 46.894531 10.714844 47.394531 11.152344 48.058594 11.390625 C 48.25 11.457031 48.449219 11.503906 48.648438 11.53125 C 49.140625 11.59375 49.628906 11.589844 50.109375 11.425781 C 50.519531 11.292969 50.851562 11.050781 51.101562 10.695312 C 51.261719 10.472656 51.363281 10.222656 51.414062 9.953125 C 51.460938 9.675781 51.476562 9.394531 51.433594 9.109375 C 51.371094 8.695312 51.191406 8.351562 50.886719 8.070312 C 50.742188 7.941406 50.585938 7.832031 50.414062 7.734375 C 50.007812 7.496094 49.574219 7.3125 49.128906 7.15625 L 47.839844 6.667969 C 47.503906 6.527344 47.179688 6.363281 46.867188 6.175781 C 46.578125 6 46.320312 5.792969 46.089844 5.550781 C 45.691406 5.128906 45.46875 4.625 45.386719 4.046875 C 45.3125 3.539062 45.332031 3.03125 45.449219 2.53125 C 45.617188 1.800781 46.007812 1.222656 46.589844 0.773438 C 47.058594 0.410156 47.59375 0.203125 48.167969 0.09375 C 48.738281 -0.0117188 49.3125 -0.03125 49.890625 0.0390625 C 50.671875 0.121094 51.390625 0.375 52.046875 0.804688 L 52.265625 0.933594 C 52.289062 0.945312 52.3125 0.9375 52.320312 0.914062 C 52.339844 0.851562 52.363281 0.792969 52.375 0.730469 C 52.398438 0.613281 52.414062 0.496094 52.472656 0.375 C 52.601562 0.332031 52.738281 0.34375 52.875 0.367188 C 52.890625 0.371094 52.90625 0.394531 52.914062 0.414062 C 52.921875 0.429688 52.925781 0.457031 52.925781 0.476562 L 52.925781 3.632812 C 52.925781 3.65625 52.921875 3.679688 52.914062 3.695312 C 52.902344 3.714844 52.882812 3.734375 52.867188 3.738281 L 52.515625 3.75 C 52.464844 3.75 52.421875 3.707031 52.414062 3.644531 L 52.316406 3.101562 C 52.25 2.769531 52.144531 2.453125 51.992188 2.152344 C 51.847656 1.871094 51.667969 1.617188 51.441406 1.398438 C 51.167969 1.128906 50.847656 0.9375 50.484375 0.820312 C 49.941406 0.644531 49.394531 0.621094 48.839844 0.742188 C 48.554688 0.808594 48.292969 0.929688 48.058594 1.105469 C 47.5625 1.476562 47.308594 1.984375 47.265625 2.601562 C 47.25 2.820312 47.265625 3.035156 47.316406 3.25 C 47.40625 3.632812 47.589844 3.953125 47.902344 4.1875 C 48.023438 4.277344 48.148438 4.363281 48.277344 4.4375 C 48.605469 4.625 48.941406 4.785156 49.292969 4.921875 L 50.394531 5.363281 C 50.863281 5.550781 51.316406 5.769531 51.753906 6.019531 C 51.96875 6.140625 52.171875 6.277344 52.371094 6.425781 C 52.878906 6.808594 53.195312 7.304688 53.324219 7.925781 C 53.457031 8.503906 53.445312 9.089844 53.300781 9.667969 C 53.144531 10.285156 52.820312 10.796875 52.351562 11.21875 C 51.882812 11.636719 51.339844 11.902344 50.742188 12.058594 C 50.09375 12.222656 49.433594 12.261719 48.769531 12.195312 C 47.902344 12.109375 47.113281 11.792969 46.410156 11.265625 L 46.105469 11.027344 C 46.070312 11.003906 46.015625 11.023438 46.003906 11.066406 L 45.90625 11.445312 Z M 89.3125 0.394531 C 89.417969 0.339844 89.492188 0.351562 89.566406 0.351562 C 89.789062 0.351562 89.808594 0.367188 89.792969 0.589844 C 89.75 1.21875 89.753906 1.851562 89.761719 2.480469 L 89.792969 3.554688 L 89.792969 3.652344 C 89.792969 3.695312 89.757812 3.742188 89.722656 3.742188 L 89.433594 3.753906 C 89.394531 3.753906 89.351562 3.742188 89.320312 3.734375 C 89.265625 3.648438 89.257812 3.558594 89.25 3.472656 C 89.210938 3.171875 89.140625 2.875 89.039062 2.589844 C 88.894531 2.164062 88.675781 1.78125 88.363281 1.457031 C 88.011719 1.09375 87.585938 0.855469 87.089844 0.75 C 86.761719 0.675781 86.433594 0.652344 86.101562 0.679688 C 85.644531 0.714844 85.222656 0.859375 84.859375 1.152344 C 84.480469 1.457031 84.25 1.847656 84.167969 2.328125 C 84.109375 2.628906 84.113281 2.929688 84.179688 3.230469 C 84.257812 3.605469 84.433594 3.917969 84.730469 4.160156 C 84.898438 4.296875 85.082031 4.40625 85.269531 4.507812 C 85.601562 4.683594 85.941406 4.839844 86.292969 4.976562 L 87.570312 5.496094 C 88.015625 5.6875 88.445312 5.898438 88.851562 6.160156 L 89.273438 6.457031 C 89.753906 6.828125 90.050781 7.320312 90.1875 7.910156 C 90.335938 8.558594 90.3125 9.203125 90.117188 9.839844 C 89.9375 10.414062 89.605469 10.886719 89.152344 11.273438 C 88.695312 11.664062 88.167969 11.914062 87.589844 12.0625 C 86.949219 12.21875 86.304688 12.261719 85.648438 12.195312 C 84.761719 12.109375 83.964844 11.792969 83.261719 11.25 L 83.03125 11.070312 C 82.996094 11.046875 82.960938 11.027344 82.929688 11.007812 C 82.871094 11.042969 82.855469 11.09375 82.839844 11.148438 L 82.707031 11.683594 C 82.6875 11.757812 82.648438 11.785156 82.566406 11.789062 L 82.46875 11.792969 C 82.253906 11.792969 82.230469 11.773438 82.230469 11.554688 L 82.242188 10.707031 L 82.234375 8.363281 L 82.238281 8.003906 C 82.238281 7.945312 82.28125 7.90625 82.34375 7.90625 L 82.695312 7.90625 C 82.734375 7.90625 82.773438 7.941406 82.777344 7.988281 L 82.828125 8.375 C 82.886719 8.894531 83.03125 9.394531 83.257812 9.867188 C 83.351562 10.050781 83.457031 10.222656 83.582031 10.390625 C 83.992188 10.933594 84.519531 11.300781 85.179688 11.464844 C 85.695312 11.59375 86.214844 11.605469 86.734375 11.492188 C 87.128906 11.40625 87.476562 11.226562 87.765625 10.9375 C 87.96875 10.734375 88.117188 10.496094 88.203125 10.226562 C 88.34375 9.800781 88.367188 9.375 88.265625 8.941406 C 88.183594 8.578125 88 8.28125 87.714844 8.042969 C 87.535156 7.886719 87.335938 7.761719 87.128906 7.648438 C 86.730469 7.4375 86.316406 7.269531 85.890625 7.121094 L 84.574219 6.609375 C 84.308594 6.496094 84.050781 6.363281 83.800781 6.21875 C 83.460938 6.023438 83.164062 5.78125 82.902344 5.492188 C 82.558594 5.113281 82.347656 4.667969 82.265625 4.164062 C 82.175781 3.632812 82.1875 3.105469 82.304688 2.578125 C 82.488281 1.753906 82.9375 1.121094 83.625 0.652344 C 84.03125 0.375 84.476562 0.203125 84.953125 0.109375 C 85.816406 -0.0625 86.675781 -0.0390625 87.527344 0.1875 C 88.015625 0.316406 88.472656 0.519531 88.898438 0.800781 L 89.117188 0.933594 C 89.136719 0.945312 89.1875 0.921875 89.195312 0.898438 L 89.238281 0.742188 Z M 120.671875 8.242188 C 120.707031 8.226562 120.734375 8.210938 120.765625 8.207031 C 120.808594 8.199219 120.851562 8.195312 120.894531 8.195312 C 121.269531 8.195312 121.238281 8.1875 121.214844 8.5625 L 121.085938 10.183594 L 120.953125 11.871094 C 120.949219 11.921875 120.9375 11.976562 120.929688 12.03125 C 120.925781 12.0625 120.871094 12.113281 120.839844 12.113281 L 120.714844 12.117188 L 118.664062 12.070312 L 117.351562 12.042969 L 115.460938 12.035156 L 115.109375 12.039062 L 112.929688 12.066406 L 111.875 12.066406 C 111.832031 12.070312 111.789062 12.0625 111.746094 12.054688 C 111.726562 12.050781 111.703125 12.03125 111.699219 12.011719 C 111.667969 11.839844 111.671875 11.667969 111.695312 11.496094 C 111.699219 11.46875 111.730469 11.441406 111.765625 11.4375 L 111.957031 11.425781 C 112.121094 11.421875 112.277344 11.398438 112.433594 11.359375 C 112.507812 11.34375 112.578125 11.320312 112.644531 11.289062 C 112.761719 11.242188 112.84375 11.164062 112.894531 11.046875 C 112.964844 10.886719 113.003906 10.71875 113.015625 10.546875 L 113.039062 10.058594 L 113.039062 2.179688 C 113.035156 1.917969 113.023438 1.660156 112.96875 1.402344 C 112.910156 1.113281 112.738281 0.945312 112.460938 0.890625 C 112.292969 0.855469 112.125 0.835938 111.953125 0.816406 L 111.761719 0.796875 C 111.726562 0.792969 111.699219 0.765625 111.695312 0.738281 C 111.671875 0.566406 111.671875 0.390625 111.695312 0.21875 C 111.699219 0.203125 111.722656 0.183594 111.742188 0.175781 C 111.773438 0.167969 111.804688 0.164062 111.835938 0.164062 L 112.1875 0.175781 L 114.429688 0.238281 L 115.742188 0.199219 L 116.414062 0.160156 C 116.476562 0.15625 116.539062 0.160156 116.605469 0.167969 C 116.628906 0.171875 116.667969 0.203125 116.667969 0.226562 C 116.695312 0.398438 116.695312 0.574219 116.667969 0.746094 C 116.664062 0.761719 116.640625 0.785156 116.625 0.789062 C 116.5625 0.800781 116.5 0.804688 116.4375 0.804688 C 116.210938 0.808594 115.988281 0.828125 115.769531 0.867188 C 115.433594 0.921875 115.234375 1.105469 115.171875 1.449219 C 115.136719 1.621094 115.128906 1.792969 115.113281 1.96875 C 115.109375 2.03125 115.113281 2.097656 115.113281 2.160156 L 115.113281 10.953125 L 115.121094 11.246094 C 115.121094 11.316406 115.171875 11.359375 115.246094 11.363281 L 115.3125 11.363281 L 118 11.359375 C 118.335938 11.355469 118.660156 11.300781 118.984375 11.222656 C 119.183594 11.171875 119.371094 11.09375 119.546875 10.992188 C 119.765625 10.867188 119.941406 10.699219 120.078125 10.484375 C 120.1875 10.308594 120.269531 10.121094 120.335938 9.929688 C 120.460938 9.578125 120.535156 9.21875 120.589844 8.855469 Z M 96.171875 6.121094 L 96.171875 9.894531 C 96.171875 10.167969 96.1875 10.4375 96.222656 10.707031 C 96.238281 10.824219 96.269531 10.941406 96.316406 11.050781 C 96.363281 11.167969 96.445312 11.25 96.5625 11.296875 C 96.75 11.375 96.953125 11.402344 97.15625 11.421875 C 97.238281 11.429688 97.324219 11.429688 97.410156 11.433594 C 97.566406 11.441406 97.585938 11.460938 97.589844 11.628906 L 97.585938 11.957031 C 97.582031 12.027344 97.53125 12.070312 97.457031 12.070312 L 97.265625 12.0625 C 96.175781 11.996094 95.089844 11.980469 94 12.019531 L 93.007812 12.0625 C 92.933594 12.066406 92.859375 12.066406 92.785156 12.058594 C 92.761719 12.054688 92.722656 12.019531 92.722656 11.996094 L 92.707031 11.671875 C 92.707031 11.445312 92.714844 11.4375 92.9375 11.433594 C 93.109375 11.429688 93.28125 11.414062 93.445312 11.378906 L 93.511719 11.367188 C 93.824219 11.3125 93.996094 11.121094 94.046875 10.804688 C 94.078125 10.625 94.109375 10.441406 94.109375 10.257812 L 94.117188 9.800781 L 94.117188 2.441406 L 94.109375 1.953125 C 94.109375 1.765625 94.074219 1.585938 94.042969 1.402344 L 94.027344 1.339844 C 93.964844 1.097656 93.816406 0.945312 93.574219 0.886719 C 93.363281 0.839844 93.152344 0.8125 92.9375 0.804688 C 92.710938 0.800781 92.707031 0.792969 92.707031 0.566406 L 92.707031 0.304688 C 92.710938 0.191406 92.742188 0.160156 92.867188 0.160156 L 93.378906 0.175781 L 95.042969 0.242188 L 96.867188 0.183594 L 97.476562 0.164062 C 97.535156 0.164062 97.578125 0.207031 97.578125 0.269531 L 97.574219 0.722656 C 97.574219 0.761719 97.53125 0.796875 97.488281 0.800781 L 97.265625 0.8125 L 96.789062 0.878906 C 96.703125 0.894531 96.625 0.925781 96.546875 0.960938 C 96.445312 1.011719 96.371094 1.085938 96.328125 1.191406 C 96.277344 1.300781 96.242188 1.414062 96.226562 1.53125 C 96.191406 1.777344 96.171875 2.027344 96.171875 2.277344 Z M 96.171875 6.121094 " fill-opacity="1" fill-rule="evenodd"/></g><g clip-path="url(#b1c8e1d72d)"><path fill="#ec1f25" d="M 7.082031 24.871094 C 7.132812 25.007812 7.234375 25.105469 7.324219 25.210938 C 7.726562 25.664062 8.195312 26.039062 8.726562 26.332031 C 9.089844 26.535156 9.472656 26.710938 9.878906 26.816406 C 9.894531 26.820312 9.917969 26.8125 9.9375 26.804688 C 9.941406 26.804688 9.941406 26.78125 9.9375 26.777344 L 9.738281 26.617188 C 9.335938 26.308594 8.972656 25.957031 8.679688 25.539062 C 8.367188 25.101562 8.148438 24.625 8.054688 24.089844 C 8.015625 23.875 8.003906 23.660156 8.019531 23.441406 C 8.085938 22.617188 8.71875 22.0625 9.34375 21.96875 C 9.96875 21.875 10.492188 22.058594 10.882812 22.558594 C 11.660156 23.546875 11.09375 24.976562 9.910156 25.191406 C 9.640625 25.238281 9.382812 25.210938 9.121094 25.136719 C 9.0625 25.117188 9.007812 25.085938 8.929688 25.089844 C 8.949219 25.117188 8.960938 25.148438 8.980469 25.160156 C 9.464844 25.457031 9.96875 25.5 10.484375 25.269531 C 10.777344 25.136719 10.722656 25.140625 10.957031 25.324219 C 11.613281 25.832031 12.355469 26.15625 13.15625 26.339844 C 13.648438 26.453125 14.144531 26.496094 14.652344 26.496094 C 15.199219 26.496094 15.738281 26.421875 16.265625 26.277344 C 16.785156 26.136719 17.273438 25.925781 17.726562 25.628906 C 18.175781 25.339844 18.546875 24.972656 18.839844 24.523438 C 19.1875 23.980469 19.359375 23.386719 19.367188 22.738281 C 19.378906 22.335938 19.339844 21.9375 19.253906 21.542969 C 19.085938 20.773438 18.714844 20.113281 18.140625 19.570312 C 17.851562 19.292969 17.535156 19.054688 17.195312 18.847656 C 16.691406 18.535156 16.160156 18.289062 15.609375 18.070312 L 13.304688 17.289062 L 10.976562 16.566406 C 10.109375 16.292969 9.261719 15.96875 8.429688 15.59375 C 7.582031 15.203125 6.773438 14.746094 6.023438 14.179688 C 4.496094 13.019531 3.433594 11.519531 2.832031 9.683594 C 2.578125 8.910156 2.402344 8.117188 2.304688 7.308594 C 2.1875 6.347656 2.160156 5.382812 2.1875 4.414062 L 2.273438 3.050781 L 2.492188 1.277344 L 2.644531 0.316406 C 2.652344 0.28125 2.664062 0.253906 2.679688 0.222656 C 2.679688 0.21875 2.699219 0.214844 2.707031 0.214844 C 2.71875 0.214844 2.730469 0.21875 2.734375 0.222656 C 2.753906 0.257812 2.777344 0.296875 2.792969 0.335938 C 3.117188 1.179688 3.667969 1.84375 4.371094 2.382812 C 4.886719 2.777344 5.449219 3.085938 6.039062 3.351562 C 6.789062 3.691406 7.570312 3.957031 8.359375 4.191406 L 11.234375 4.976562 L 14.40625 5.890625 C 15.214844 6.164062 16.011719 6.476562 16.777344 6.867188 C 17.457031 7.214844 18.097656 7.625 18.679688 8.125 C 19.507812 8.839844 20.144531 9.699219 20.542969 10.734375 L 20.585938 10.855469 C 20.589844 10.875 20.585938 10.902344 20.574219 10.914062 C 20.566406 10.925781 20.535156 10.921875 20.523438 10.914062 C 20.484375 10.890625 20.453125 10.867188 20.417969 10.839844 C 19.355469 9.960938 18.167969 9.308594 16.890625 8.820312 C 15.96875 8.46875 15.023438 8.203125 14.054688 8.027344 C 13.515625 7.933594 12.976562 7.867188 12.433594 7.824219 C 11.902344 7.78125 11.367188 7.769531 10.835938 7.792969 C 10.492188 7.804688 10.152344 7.847656 9.816406 7.878906 L 8.769531 8.035156 C 7.480469 8.28125 6.25 8.691406 5.089844 9.316406 C 5.03125 9.34375 4.972656 9.367188 4.914062 9.390625 C 4.941406 9.386719 4.945312 9.390625 4.925781 9.40625 L 4.921875 9.378906 C 4.996094 9.398438 5.066406 9.398438 5.140625 9.371094 L 5.804688 9.136719 C 6.546875 8.894531 7.308594 8.71875 8.082031 8.613281 L 9.226562 8.496094 C 9.355469 8.488281 9.480469 8.476562 9.601562 8.503906 C 9.667969 8.597656 9.671875 8.695312 9.6875 8.789062 C 9.769531 9.226562 9.882812 9.65625 10.03125 10.074219 C 10.4375 11.203125 11.09375 12.148438 11.984375 12.929688 C 12.433594 13.316406 12.910156 13.660156 13.417969 13.964844 L 15.21875 14.957031 L 17 15.921875 C 17.507812 16.226562 17.992188 16.554688 18.445312 16.941406 C 19.082031 17.488281 19.605469 18.125 19.988281 18.875 C 20.261719 19.410156 20.457031 19.96875 20.578125 20.554688 C 20.714844 21.203125 20.789062 21.863281 20.78125 22.527344 C 20.757812 24.230469 20.167969 25.703125 19 26.929688 C 18.050781 27.925781 16.890625 28.535156 15.558594 28.804688 C 15.105469 28.894531 14.648438 28.921875 14.1875 28.933594 C 13.460938 28.953125 12.738281 28.894531 12.023438 28.753906 C 11.039062 28.558594 10.109375 28.21875 9.257812 27.671875 C 8.675781 27.300781 8.164062 26.847656 7.746094 26.285156 C 7.472656 25.921875 7.253906 25.523438 7.089844 25.097656 C 7.058594 25.023438 7.058594 24.949219 7.089844 24.878906 L 7.082031 24.875 Z M 35.816406 24.878906 C 35.851562 24.953125 35.847656 25.027344 35.816406 25.101562 C 35.714844 25.363281 35.59375 25.617188 35.449219 25.859375 C 35.078125 26.476562 34.589844 26.992188 34.015625 27.421875 C 33.539062 27.777344 33.023438 28.058594 32.476562 28.28125 C 31.707031 28.59375 30.914062 28.789062 30.089844 28.875 C 29.429688 28.945312 28.769531 28.953125 28.105469 28.902344 C 27.089844 28.828125 26.160156 28.507812 25.316406 27.9375 C 24.785156 27.585938 24.324219 27.152344 23.914062 26.664062 C 23.328125 25.960938 22.871094 25.179688 22.511719 24.339844 C 22.117188 23.394531 21.835938 22.417969 21.667969 21.410156 C 21.457031 20.195312 21.417969 18.972656 21.503906 17.746094 C 21.59375 16.394531 21.878906 15.085938 22.386719 13.828125 C 22.703125 13.042969 23.109375 12.304688 23.617188 11.628906 C 23.988281 11.144531 24.429688 10.742188 24.945312 10.417969 C 25.449219 10.101562 25.984375 9.863281 26.542969 9.671875 C 27.191406 9.449219 27.855469 9.285156 28.527344 9.152344 L 31.152344 8.75 L 33.089844 8.484375 L 35.320312 8.042969 C 35.773438 7.917969 36.21875 7.765625 36.648438 7.566406 C 36.949219 7.425781 37.230469 7.25 37.507812 7.066406 C 37.515625 7.058594 37.542969 7.070312 37.558594 7.074219 C 37.566406 7.078125 37.574219 7.09375 37.574219 7.101562 C 37.570312 7.132812 37.570312 7.167969 37.5625 7.199219 C 37.472656 7.480469 37.332031 7.734375 37.136719 7.957031 C 36.960938 8.160156 36.761719 8.339844 36.539062 8.496094 C 36.320312 8.648438 36.085938 8.78125 35.847656 8.902344 C 35.394531 9.125 34.929688 9.3125 34.453125 9.472656 L 32.335938 10.121094 L 29.761719 10.90625 C 28.96875 11.171875 28.191406 11.472656 27.441406 11.84375 C 26.769531 12.175781 26.128906 12.566406 25.539062 13.039062 C 25 13.472656 24.523438 13.964844 24.125 14.539062 C 23.5625 15.347656 23.207031 16.25 23.023438 17.21875 C 22.929688 17.734375 22.882812 18.253906 22.882812 18.773438 L 22.945312 20.171875 C 23.046875 21.0625 23.28125 21.914062 23.667969 22.722656 C 24.136719 23.726562 24.804688 24.578125 25.671875 25.265625 C 26.285156 25.753906 26.964844 26.109375 27.71875 26.308594 C 28.21875 26.445312 28.726562 26.496094 29.242188 26.460938 C 29.847656 26.414062 30.417969 26.253906 30.960938 25.976562 C 31.296875 25.808594 31.609375 25.605469 31.90625 25.367188 L 32.132812 25.1875 C 32.15625 25.171875 32.195312 25.167969 32.222656 25.179688 C 32.273438 25.195312 32.320312 25.222656 32.367188 25.246094 C 32.503906 25.3125 32.644531 25.355469 32.792969 25.382812 C 33.214844 25.460938 33.601562 25.378906 33.953125 25.136719 C 33.964844 25.128906 33.964844 25.105469 33.972656 25.074219 C 33.8125 25.121094 33.664062 25.175781 33.507812 25.199219 C 33.019531 25.277344 32.59375 25.152344 32.230469 24.820312 C 31.761719 24.40625 31.585938 23.875 31.703125 23.265625 C 31.746094 22.96875 31.867188 22.707031 32.066406 22.480469 C 32.265625 22.257812 32.507812 22.101562 32.796875 22.019531 C 33.722656 21.726562 34.691406 22.292969 34.871094 23.308594 C 34.914062 23.554688 34.898438 23.804688 34.855469 24.054688 C 34.78125 24.496094 34.625 24.910156 34.390625 25.292969 C 34.121094 25.730469 33.785156 26.105469 33.394531 26.433594 L 32.96875 26.773438 C 32.960938 26.777344 32.960938 26.796875 32.96875 26.804688 C 32.972656 26.8125 32.984375 26.824219 32.992188 26.820312 L 33.179688 26.777344 C 33.984375 26.507812 34.695312 26.078125 35.3125 25.492188 C 35.476562 25.335938 35.625 25.167969 35.761719 24.988281 C 35.789062 24.953125 35.804688 24.914062 35.828125 24.875 Z M 34.3125 10.105469 C 34.464844 10.039062 34.566406 10.015625 34.671875 9.992188 C 35.203125 9.859375 35.710938 9.664062 36.183594 9.386719 C 37.230469 8.777344 37.996094 7.914062 38.445312 6.773438 C 38.578125 6.4375 38.660156 6.09375 38.695312 5.734375 C 38.699219 5.703125 38.695312 5.667969 38.6875 5.636719 C 38.6875 5.628906 38.683594 5.613281 38.675781 5.613281 C 38.65625 5.605469 38.632812 5.597656 38.617188 5.605469 C 38.582031 5.628906 38.546875 5.65625 38.519531 5.683594 C 38.054688 6.109375 37.523438 6.429688 36.953125 6.6875 C 36.335938 6.957031 35.695312 7.167969 35.035156 7.316406 C 34.296875 7.484375 33.550781 7.621094 32.800781 7.722656 L 30.613281 8.023438 L 29.121094 8.238281 C 27.992188 8.417969 26.875 8.648438 25.789062 9.015625 C 25.25 9.195312 24.726562 9.410156 24.21875 9.667969 C 23.613281 9.976562 23.050781 10.347656 22.53125 10.785156 L 22.382812 10.90625 C 22.371094 10.914062 22.34375 10.90625 22.328125 10.902344 C 22.324219 10.898438 22.320312 10.882812 22.320312 10.871094 C 22.328125 10.839844 22.332031 10.808594 22.34375 10.777344 C 22.632812 10.023438 23.046875 9.347656 23.589844 8.746094 C 24.144531 8.132812 24.789062 7.640625 25.492188 7.21875 C 26.019531 6.910156 26.566406 6.636719 27.132812 6.40625 C 27.910156 6.078125 28.714844 5.8125 29.519531 5.570312 L 32.148438 4.851562 L 35.351562 3.9375 C 36.0625 3.699219 36.761719 3.429688 37.425781 3.078125 C 37.890625 2.835938 38.335938 2.554688 38.742188 2.214844 C 39.355469 1.699219 39.824219 1.082031 40.117188 0.324219 C 40.132812 0.285156 40.136719 0.238281 40.175781 0.214844 C 40.183594 0.210938 40.195312 0.210938 40.207031 0.214844 C 40.214844 0.214844 40.230469 0.222656 40.230469 0.226562 L 40.320312 0.703125 L 40.503906 2.351562 L 40.523438 3.003906 C 40.535156 3.800781 40.457031 4.585938 40.269531 5.359375 C 40.171875 5.769531 40.042969 6.171875 39.882812 6.5625 C 39.792969 6.785156 39.675781 6.992188 39.546875 7.191406 C 38.953125 8.113281 38.203125 8.871094 37.261719 9.425781 C 36.644531 9.792969 35.980469 10.019531 35.269531 10.105469 C 35.046875 10.132812 34.691406 10.136719 34.3125 10.105469 Z M 34.3125 10.105469 " fill-opacity="1" fill-rule="evenodd"/></g><path fill="#ffffff" d="M 21.457031 6.988281 L 21.484375 6.84375 C 21.6875 5.261719 22.269531 3.835938 23.234375 2.570312 C 23.59375 2.097656 24.011719 1.679688 24.488281 1.320312 C 24.902344 1.007812 25.347656 0.753906 25.839844 0.59375 C 26.1875 0.480469 26.542969 0.421875 26.910156 0.417969 C 27.207031 0.417969 27.472656 0.511719 27.703125 0.691406 C 27.9375 0.871094 28.09375 1.101562 28.171875 1.386719 C 28.371094 2.101562 27.976562 2.808594 27.316406 3.019531 C 26.851562 3.171875 26.429688 3.074219 26.054688 2.761719 C 26 2.714844 25.949219 2.652344 25.894531 2.601562 C 25.863281 2.574219 25.820312 2.558594 25.777344 2.570312 L 25.503906 2.660156 C 25.070312 2.832031 24.675781 3.066406 24.308594 3.351562 C 23.753906 3.785156 23.277344 4.292969 22.875 4.875 C 22.253906 5.761719 21.816406 6.730469 21.546875 7.78125 L 21.464844 8.097656 C 21.445312 8.082031 21.417969 8.078125 21.414062 8.0625 C 21.390625 8.003906 21.371094 7.941406 21.355469 7.878906 C 21.039062 6.605469 20.492188 5.453125 19.671875 4.4375 C 19.332031 4.015625 18.953125 3.640625 18.519531 3.3125 C 18.125 3.011719 17.695312 2.769531 17.226562 2.609375 L 17.105469 2.574219 C 17.0625 2.566406 17.019531 2.570312 16.988281 2.605469 L 16.824219 2.761719 C 16.105469 3.386719 15.007812 3.078125 14.714844 2.15625 C 14.449219 1.308594 15.046875 0.464844 15.902344 0.425781 C 16.359375 0.402344 16.796875 0.5 17.21875 0.660156 C 17.714844 0.847656 18.160156 1.125 18.570312 1.457031 C 19.113281 1.90625 19.574219 2.429688 19.964844 3.015625 C 20.667969 4.066406 21.125 5.214844 21.339844 6.457031 L 21.40625 6.875 C 21.414062 6.90625 21.429688 6.933594 21.453125 6.992188 Z M 21.457031 6.988281 " fill-opacity="1" fill-rule="evenodd"/></svg>